<svg width="24" height="24" viewBox="0 0 24 24" fill="none" xmlns="http://www.w3.org/2000/svg">
<g style="mix-blend-mode:exclusion">
<path d="M20 14.8922C20.2652 14.8922 20.5196 14.9976 20.7071 15.1851C20.8946 15.3727 21 15.627 21 15.8922V19.8922C21 20.4227 20.7893 20.9314 20.4142 21.3064C20.0391 21.6815 19.5304 21.8922 19 21.8922H5C4.46957 21.8922 3.96086 21.6815 3.58579 21.3064C3.21071 20.9314 3 20.4227 3 19.8922V15.8922C3 15.627 3.10536 15.3727 3.29289 15.1851C3.48043 14.9976 3.73478 14.8922 4 14.8922C4.26522 14.8922 4.51957 14.9976 4.70711 15.1851C4.89464 15.3727 5 15.627 5 15.8922V19.8922H19V15.8922C19 15.627 19.1054 15.3727 19.2929 15.1851C19.4804 14.9976 19.7348 14.8922 20 14.8922ZM12.884 3.36623L16.95 7.43223C17.0455 7.52448 17.1217 7.63482 17.1741 7.75683C17.2265 7.87883 17.2541 8.01005 17.2553 8.14283C17.2564 8.27561 17.2311 8.40729 17.1808 8.53019C17.1305 8.65308 17.0563 8.76474 16.9624 8.85863C16.8685 8.95252 16.7568 9.02677 16.634 9.07705C16.5111 9.12734 16.3794 9.15264 16.2466 9.15148C16.1138 9.15033 15.9826 9.12274 15.8606 9.07033C15.7386 9.01793 15.6282 8.94174 15.536 8.84623L13 6.31223V15.8922C13 16.1574 12.8946 16.4118 12.7071 16.5993C12.5196 16.7869 12.2652 16.8922 12 16.8922C11.7348 16.8922 11.4804 16.7869 11.2929 16.5993C11.1054 16.4118 11 16.1574 11 15.8922V6.31123L8.464 8.84623C8.2754 9.02839 8.0228 9.12919 7.7606 9.12691C7.4984 9.12463 7.24759 9.01946 7.06218 8.83405C6.87677 8.64864 6.7716 8.39783 6.76933 8.13563C6.76705 7.87344 6.86784 7.62084 7.05 7.43223L11.116 3.36623C11.2321 3.25012 11.3699 3.15802 11.5216 3.09518C11.6732 3.03234 11.8358 3 12 3C12.1642 3 12.3268 3.03234 12.4784 3.09518C12.6301 3.15802 12.7679 3.25012 12.884 3.36623Z" fill="white"/>
</g>
</svg>
